<svg width="24" height="24" viewBox="0 0 24 24" fill="none" xmlns="http://www.w3.org/2000/svg">
<path d="M19.5 8.49981V5.55271H18.5V8.49981H15.5529V9.49981H18.5V12.447H19.5V9.49981H22.4472V8.49981H19.5ZM9.5 9.66641C10.2252 9.66643 10.9341 9.4514 11.5371 9.0485C12.1401 8.64561 12.6101 8.07295 12.8877 7.40294C13.1652 6.73293 13.2378 5.99568 13.0964 5.2844C12.9549 4.57312 12.6057 3.91976 12.0928 3.40696C11.58 2.89416 10.9267 2.54494 10.2154 2.40346C9.50413 2.26198 8.76687 2.3346 8.09687 2.61214C7.42686 2.88968 6.8542 3.35966 6.45131 3.96266C6.04841 4.56566 5.83338 5.2746 5.8334 5.99981C5.83454 6.9719 6.2212 7.90386 6.90858 8.59123C7.59595 9.2786 8.52791 9.66527 9.5 9.66641ZM9.5 3.33311C10.0274 3.33309 10.543 3.48947 10.9816 3.78248C11.4201 4.07549 11.7619 4.49196 11.9638 4.97924C12.1656 5.46651 12.2185 6.0027 12.1156 6.52C12.0127 7.03729 11.7587 7.51246 11.3858 7.88542C11.0128 8.25837 10.5377 8.51236 10.0204 8.61526C9.50309 8.71817 8.9669 8.66536 8.47962 8.46353C7.99234 8.2617 7.57585 7.9199 7.28283 7.48136C6.9898 7.04282 6.8334 6.52724 6.8334 5.99981C6.83427 5.29284 7.11549 4.61508 7.61539 4.11517C8.11528 3.61526 8.79303 3.33401 9.5 3.33311ZM9.5 11.7117C8.15821 11.7093 6.82917 11.9721 5.58922 12.4849C4.34928 12.9977 3.22287 13.7504 2.2747 14.6998L2 14.9746V19.9998H17V14.9746L16.7253 14.6998C15.7771 13.7504 14.6507 12.9977 13.4108 12.4849C12.1708 11.9721 10.8418 11.7093 9.5 11.7117ZM16 18.9998H3V15.394C3.0117 15.3834 3.1089 15.2875 3.1207 15.2772C4.83644 13.6309 7.12219 12.7117 9.5 12.7117C11.8778 12.7117 14.1636 13.6309 15.8793 15.2772C15.8911 15.2872 15.9883 15.3834 16 15.394V18.9998Z" fill="black"/>
</svg>
