<svg width="24" height="24" viewBox="0 0 24 24" fill="none" xmlns="http://www.w3.org/2000/svg">
<path d="M12 4.62158C9.55805 4.62277 7.16659 5.31669 5.10332 6.62274C3.04005 7.9288 1.38963 9.7934 0.34375 12C1.38867 14.2073 3.03887 16.0725 5.10235 17.3787C7.16584 18.6849 9.5578 19.3784 12 19.3784C14.4421 19.3784 16.8341 18.6849 18.8975 17.3787C20.961 16.0725 22.6112 14.2073 23.6562 12C22.6103 9.7934 20.9599 7.9288 18.8966 6.62274C16.8333 5.31669 14.4419 4.62277 12 4.62158ZM12 18.3783C9.8305 18.3691 7.70427 17.7709 5.8483 16.6476C3.99233 15.5242 2.47632 13.9178 1.46215 12C2.46911 10.0762 3.98347 8.46482 5.84106 7.34046C7.69865 6.21611 9.82859 5.62171 12 5.62171C14.1713 5.62171 16.3012 6.21611 18.1588 7.34046C20.0164 8.46482 21.5308 10.0762 22.5378 12C21.5236 13.9178 20.0076 15.5242 18.1516 16.6476C16.2956 17.7709 14.1694 18.3691 12 18.3783ZM12 8.33578C11.2752 8.33578 10.5668 8.55068 9.96423 8.95331C9.36166 9.35594 8.892 9.92821 8.61467 10.5978C8.33734 11.2673 8.26477 12.004 8.40616 12.7148C8.54754 13.4256 8.89652 14.0785 9.40897 14.591C9.92142 15.1034 10.5743 15.4524 11.2851 15.5938C11.9959 15.7352 12.7326 15.6626 13.4022 15.3853C14.0717 15.1079 14.644 14.6383 15.0466 14.0357C15.4492 13.4331 15.6642 12.7247 15.6642 12C15.6642 11.0282 15.2781 10.0962 14.5909 9.409C13.9038 8.72183 12.9718 8.33578 12 8.33578ZM12 14.6642C11.473 14.6642 10.9579 14.5079 10.5198 14.2152C10.0817 13.9224 9.7402 13.5063 9.53855 13.0195C9.3369 12.5327 9.28414 11.997 9.38694 11.4802C9.48974 10.9634 9.74348 10.4887 10.1161 10.1161C10.4887 9.74351 10.9634 9.48977 11.4802 9.38697C11.997 9.28417 12.5327 9.33694 13.0195 9.53858C13.5063 9.74023 13.9224 10.0817 14.2152 10.5198C14.5079 10.958 14.6642 11.4731 14.6642 12C14.6633 12.7063 14.3824 13.3835 13.8829 13.8829C13.3835 14.3824 12.7063 14.6634 12 14.6642Z" fill="black"/>
</svg>
